<?xml version="1.0" encoding="UTF-8"?>
<svg id="Layer_1" data-name="Layer 1" xmlns="http://www.w3.org/2000/svg" viewBox="0 0 1280 1024">
  <defs>
    <style>
      .cls-1 {
        fill: #dc7727;
      }

      .cls-2 {
        fill: #bd4527;
      }
    </style>
  </defs>
  <g>
    <path class="cls-2" d="M116.83,453.56v-21.39h66.07c4.33,0,8.08-.95,11.24-2.85,3.16-1.89,5.55-4.37,7.18-7.44,1.62-3.07,2.44-6.32,2.44-9.75,0-3.25-.72-6.27-2.17-9.07-1.45-2.8-3.66-5.05-6.63-6.77-2.98-1.71-6.55-2.57-10.7-2.57h-27.89c-8.85,0-16.57-1.49-23.15-4.47-6.59-2.98-11.74-7.35-15.44-13.13-3.7-5.78-5.55-12.82-5.55-21.12,0-7.04,1.71-13.54,5.15-19.5,3.43-5.96,8.21-10.78,14.35-14.49,6.14-3.7,13.18-5.55,21.12-5.55h63.64v21.39h-61.2c-5.6,0-10.02,1.72-13.27,5.14-3.25,3.43-4.87,7.5-4.87,12.19s1.67,8.44,5.01,11.78c3.34,3.34,8.08,5.01,14.22,5.01h26.54c9.93,0,18.28,1.58,25.05,4.74,6.77,3.16,11.91,7.72,15.43,13.67,3.52,5.96,5.28,13.27,5.28,21.93,0,7.41-1.81,14.31-5.42,20.72-3.61,6.41-8.62,11.6-15.03,15.57-6.41,3.97-13.86,5.96-22.34,5.96h-69.05Z"/>
    <path class="cls-2" d="M320.74,456.81c-12.46,0-23.61-2.57-33.44-7.72-9.84-5.14-17.51-12.32-23.02-21.53-5.51-9.21-8.26-19.94-8.26-32.22v-79.88h25.18v79.61c0,8.31,1.8,15.48,5.42,21.53,3.61,6.05,8.44,10.7,14.49,13.95,6.05,3.25,12.5,4.87,19.36,4.87s13.58-1.63,19.63-4.87c6.05-3.25,10.92-7.9,14.62-13.95,3.7-6.05,5.55-13.22,5.55-21.53v-79.61h25.18v79.88c0,12.28-2.8,23.02-8.39,32.22-5.6,9.21-13.27,16.39-23.02,21.53-9.75,5.14-20.85,7.72-33.31,7.72Z"/>
    <path class="cls-2" d="M419.58,453.56v-79.89c0-12.27,2.75-23.02,8.26-32.22,5.5-9.21,13.13-16.38,22.88-21.53,9.75-5.14,20.85-7.72,33.31-7.72s23.78,2.57,33.44,7.72c9.66,5.14,17.24,12.32,22.75,21.53,5.5,9.21,8.26,19.95,8.26,32.22v79.89h-24.91v-79.62c0-8.3-1.85-15.48-5.55-21.53-3.7-6.05-8.58-10.7-14.62-13.94-6.05-3.25-12.5-4.87-19.36-4.87s-13.32,1.62-19.36,4.87c-6.05,3.25-10.93,7.9-14.62,13.94-3.7,6.05-5.55,13.23-5.55,21.53v79.62h-24.91Z"/>
    <path class="cls-2" d="M652.47,456.81c-13.36,0-25.37-2.89-36.02-8.66-10.65-5.78-19.09-14.12-25.32-25.05-6.23-10.92-9.34-24.05-9.34-39.4v-127.81h24.91v84.22h.54c3.07-5.59,7.08-10.47,12.05-14.62,4.96-4.15,10.65-7.4,17.06-9.75,6.41-2.34,13.13-3.52,20.17-3.52,12.82,0,24.28,2.89,34.39,8.66,10.11,5.78,18.1,13.94,23.97,24.51,5.86,10.56,8.8,23.07,8.8,37.51,0,11.37-1.76,21.62-5.28,30.73-3.52,9.12-8.44,16.93-14.76,23.42-6.32,6.5-13.81,11.42-22.48,14.76-8.67,3.34-18.24,5.01-28.7,5.01ZM652.47,435.42c8.48,0,16.2-2.07,23.15-6.23,6.95-4.15,12.5-10.02,16.65-17.6,4.15-7.58,6.23-16.61,6.23-27.08s-2.03-18.95-6.09-26.54c-4.06-7.58-9.53-13.54-16.38-17.87-6.86-4.33-14.62-6.5-23.29-6.5s-16.21,2.08-23.15,6.23c-6.95,4.16-12.46,10.07-16.52,17.74-4.06,7.67-6.09,16.75-6.09,27.22s2.03,19.23,6.09,26.81c4.06,7.58,9.57,13.45,16.52,17.6,6.95,4.16,14.58,6.23,22.88,6.23Z"/>
    <path class="cls-2" d="M808.44,453.56v-98.84c0-12.27,3.47-21.89,10.43-28.84,6.95-6.95,16.56-10.43,28.84-10.43h28.43v21.39h-23.83c-5.96,0-10.61,1.72-13.95,5.14-3.34,3.43-5.01,8.22-5.01,14.35v97.22h-24.91Z"/>
    <path class="cls-2" d="M957.38,456.81c-10.47,0-20.04-1.67-28.7-5.01-8.67-3.34-16.16-8.26-22.48-14.76-6.32-6.5-11.24-14.31-14.76-23.42-3.52-9.11-5.28-19.36-5.28-30.73,0-14.44,2.93-26.94,8.8-37.51,5.86-10.56,13.9-18.73,24.1-24.51,10.2-5.78,21.62-8.66,34.26-8.66,7.04,0,13.76,1.18,20.17,3.52,6.41,2.35,12.14,5.6,17.2,9.75,5.05,4.16,9.02,9.03,11.91,14.62h.54v-84.22h24.91v127.81c0,15.35-3.11,28.48-9.34,39.4-6.23,10.93-14.62,19.28-25.18,25.05-10.56,5.78-22.61,8.66-36.15,8.66ZM957.38,435.42c8.48,0,16.15-2.07,23.02-6.23,6.86-4.15,12.32-10.02,16.38-17.6,4.06-7.58,6.09-16.52,6.09-26.81s-2.03-19.54-6.09-27.22c-4.06-7.67-9.52-13.58-16.38-17.74-6.86-4.15-14.62-6.23-23.29-6.23s-16.21,2.16-23.15,6.5c-6.95,4.34-12.46,10.29-16.52,17.87-4.06,7.58-6.09,16.43-6.09,26.54s2.07,19.5,6.23,27.08c4.15,7.58,9.7,13.45,16.65,17.6,6.95,4.16,14.67,6.23,23.15,6.23Z"/>
    <circle class="cls-1" cx="763.51" cy="255.88" r="29.26"/>
    <circle class="cls-1" cx="763.51" cy="505.98" r="29.26"/>
  </g>
  <g>
    <path class="cls-1" d="M308.21,679.12c-2.69-.45-5.22-1.4-7.57-2.86-2.36-1.46-3.53-3.65-3.53-6.57,0-4.94,2.69-10.15,8.08-15.66,5.39-5.5,12.12-10.82,20.2-15.99,8.08-5.16,16.05-9.43,23.9-12.79-4.94-5.16-8.87-10.15-11.78-14.98-2.92-4.82-4.37-9.71-4.37-14.65,0-6.73,3.14-13.18,9.43-19.36,6.28-6.17,16.27-12.29,29.96-18.35,6.51-2.92,12.4-4.94,17.68-6.06,5.27-1.12,9.93-1.68,13.97-1.68,5.16,0,9.43.67,12.79,2.02,3.37,1.35,5.83,2.92,7.41,4.71,3.59,4.27,5.39,8.53,5.39,12.79,0,5.39-2.36,9.99-7.07,13.8-4.71,3.82-9.09,6.96-13.13,9.43-.67.23-1.35.56-2.02,1.01-.67.45-1.24.9-1.68,1.35-1.35.9-2.14,1.46-2.36,1.68-2.02,1.8-4.04,2.25-6.06,1.35-1.12-.67-1.68-1.57-1.68-2.69s.56-2.02,1.68-2.69c2.47-1.12,5.33-3.31,8.59-6.56,3.25-3.25,6.17-6.73,8.75-10.44,2.58-3.7,3.87-6.9,3.87-9.59,0-1.35-.34-2.47-1.01-3.37-1.35-1.35-4.04-2.02-8.08-2.02-4.94,0-10.72,1.12-17.34,3.37-6.62,2.25-13.02,5.22-19.19,8.92-6.18,3.7-11.28,7.74-15.32,12.12s-6.06,8.7-6.06,12.96c0,3.82,1.29,7.46,3.87,10.94,2.58,3.48,5.44,6.79,8.59,9.93,6.28-2.69,13.75-4.99,22.39-6.9,8.64-1.9,17.62-3.42,26.94-4.55,9.31-1.12,18.35-1.9,27.1-2.35,8.75-.45,16.27-.67,22.56-.67h9.76c2.69,0,4.83.23,6.4.67,2.02.45,3.03,1.35,3.03,2.69,0,.9-.39,1.68-1.18,2.36-.79.67-1.63,1.01-2.53,1.01-1.57,0-3.2-.11-4.88-.34-1.68-.22-3.65-.34-5.89-.34-6.96,0-15.27.51-24.91,1.51-9.65,1.01-19.36,2.25-29.12,3.7-9.76,1.46-18.57,3.09-26.43,4.88-7.86,1.8-13.47,3.59-16.83,5.39,3.81,5.16,5.72,10.66,5.72,16.5,0,10.33-5.05,18.41-15.15,24.24-6.73,4.26-14.31,7.46-22.72,9.6-8.42,2.13-15.88,3.2-22.39,3.2-1.57,0-2.98-.06-4.21-.17-1.24-.12-2.42-.28-3.54-.5ZM315.61,669.36c2.47,0,7.01-.96,13.63-2.86,6.62-1.9,12.74-4.66,18.35-8.25,7.63-4.71,11.45-10.1,11.45-16.16,0-3.81-1.8-7.85-5.39-12.12-4.27,1.57-9.48,4.55-15.66,8.92-6.18,4.38-11.61,8.92-16.33,13.63-5.17,5.17-8.42,9.43-9.76,12.79,0,.23-.06.45-.17.67-.12.22-.17.56-.17,1.01,0,1.35,1.35,2.13,4.04,2.36Z"/>
    <path class="cls-1" d="M648.58,602.36c-.67-.45-1.51-.84-2.53-1.18-1.01-.33-1.74-.62-2.19-.84-1.12-.45-2.64-.67-4.55-.67h-5.89c-5.16,0-11.56.4-19.19,1.18-7.63.79-15.71,1.74-24.24,2.86-.23-4.26-1.68-8.42-4.38-12.46s-5.28-6.84-7.74-8.42c-6.51-5.16-13.86-8.53-22.05-10.1-8.2-1.57-15.88-2.36-23.06-2.36-6.29,0-11.9.34-16.83,1.01-4.94.67-8.64,1.24-11.11,1.68-1.57-.9-3.59-1.35-6.06-1.35-4.04,0-8.48,1.18-13.3,3.54-4.83,2.36-8.92,5.05-12.29,8.08s-5.17,5.67-5.39,7.91c0,2.02,1.9,3.03,5.72,3.03h2.02c.67,0,1.46-.11,2.36-.34-8.75,12.12-17.29,24.3-25.59,36.53-8.31,12.24-16.72,24.3-25.25,36.19-8.75,12.34-17.62,24.46-26.6,36.36-8.97,11.89-18.29,23.45-27.94,34.68-14.81,17.05-29.29,32.21-43.43,45.45-14.14,13.24-26.82,23.11-38.04,29.63-8.3,4.71-17.34,8.59-27.1,11.62-2.88.89-5.79,1.64-8.74,2.27,9.11,1.89,18.21,3.81,27.37,5.35,7.72-2.37,14.82-5.07,21.27-8.13,12.57-6.29,25.7-15.88,39.39-28.78,13.69-12.91,27.05-27.67,40.06-44.27,12.12-15.04,22.22-28.79,30.3-41.24s15.93-24.86,23.57-37.2c7.85-12.34,16.38-25.25,25.59-38.72,9.2-13.47,20.98-28.73,35.35-45.79l6.06-2.36c3.37-1.12,8.36-2.13,14.98-3.03,6.62-.89,13.52-1.35,20.7-1.35,10.55,0,19.7,1.35,27.44,4.04,7.74,2.69,11.62,7.63,11.62,14.81v2.69c0,.9-.23,1.8-.67,2.69-17.06,2.92-33.16,6.34-48.31,10.27-15.15,3.93-28.23,8.03-39.22,12.29-11,4.27-18.85,8.42-23.57,12.46-4.94,4.27-7.41,8.64-7.41,13.13,0,4.94,2.86,8.64,8.59,11.11,5.72,2.47,11.84,3.7,18.35,3.7,5.83,0,12.79-.67,20.87-2.02,8.08-1.35,16.5-3.42,25.25-6.23,8.75-2.81,17.05-6.34,24.91-10.61,7.85-4.26,14.65-9.43,20.37-15.49,5.72-6.06,9.37-12.9,10.94-20.54,11.89-2.47,22.67-4.32,32.32-5.56,9.65-1.23,17.05-1.62,22.22-1.18,2.47,0,4.04-.11,4.71-.34,2.02-.9,2.13-2.24.34-4.04ZM554.31,631.82c-6.73,4.83-14.26,9.04-22.56,12.63-7.86,3.37-16.16,5.95-24.91,7.74-8.75,1.8-16.05,2.69-21.88,2.69-6.29,0-9.43-.78-9.43-2.36,0-.45.78-1.46,2.36-3.03,1.57-1.57,4.82-3.59,9.76-6.06,5.83-3.14,13.18-6.23,22.05-9.26,8.86-3.03,18.63-6,29.29-8.92,10.66-2.92,21.26-5.61,31.82-8.08-4.27,4.94-9.76,9.82-16.5,14.65Z"/>
    <path class="cls-1" d="M745.88,669.36c-6.73,0-12.85-1.74-18.35-5.22-5.5-3.48-8.25-9.82-8.25-19.02,0-3.37.45-6.9,1.35-10.61.9-3.7,1.9-7.35,3.03-10.94-3.82,3.82-8.53,8.25-14.14,13.3-5.61,5.05-11.73,9.93-18.35,14.65-6.62,4.71-13.25,8.59-19.86,11.61-6.62,3.03-12.85,4.55-18.68,4.55-7.18,0-13.02-2.58-17.51-7.74-3.15-3.37-4.71-7.74-4.71-13.13,0-6.51,2.3-13.75,6.9-21.72,4.6-7.96,10.89-15.88,18.86-23.74,7.96-7.85,17.05-15.03,27.27-21.55,10.21-6.51,20.81-11.67,31.82-15.49,11.89-4.26,22.44-6.4,31.65-6.4,16.16,0,24.24,6.96,24.24,20.87,0,.9-.06,1.97-.17,3.2-.12,1.23-.28,2.52-.51,3.87-1.12,4.49-2.81,7.52-5.05,9.09-.23.23-.79.51-1.68.84-.9.34-1.69.06-2.36-.84-.67-1.12-.79-2.69-.34-4.71.67-2.47,1.01-4.6,1.01-6.4,0-6.28-3.48-9.43-10.44-9.43-3.82,0-8.64.79-14.48,2.36-5.84,1.57-12.07,3.65-18.68,6.23-6.62,2.58-12.91,5.34-18.85,8.25-5.95,2.92-10.94,5.84-14.98,8.75-10.33,7.41-19.36,15.54-27.1,24.41-7.74,8.87-12.18,16.55-13.3,23.06-.23.67-.34,1.35-.34,2.02v1.68c0,3.37.73,5.61,2.19,6.73,1.46,1.12,3.2,1.68,5.22,1.68,3.81,0,8.19-1.18,13.13-3.53,4.93-2.36,9.59-4.99,13.97-7.91,4.38-2.91,7.46-5.16,9.26-6.73,6.95-6.06,14.87-12.63,23.73-19.69,8.87-7.07,16.78-13.64,23.74-19.7,1.35-.67,3.03-1.01,5.05-1.01,3.59,0,6.4.79,8.42,2.35.89.67,1.35,2.02,1.35,4.04,0,2.69-1.01,6.06-3.03,10.1-3.59,7.63-6.62,14.42-9.09,20.37-2.47,5.95-3.7,10.83-3.7,14.65,0,5.61,3.14,8.42,9.43,8.42,4.94,0,12.91-1.9,23.9-5.72,11.45-4.26,23.06-10.21,34.84-17.84,11.78-7.63,22.39-15.37,31.82-23.23,1.12-1.12,2.24-2.02,3.37-2.69,1.12-.67,2.13-1.46,3.03-2.36,1.12-.67,2.19-1.46,3.2-2.36,1.01-.9,2.19-1.79,3.53-2.69,1.35-.45,2.24-.67,2.69-.67,1.57,0,2.36.79,2.36,2.36,0,1.35-.56,2.58-1.68,3.7-1.35,1.8-4.6,5.05-9.76,9.76-5.16,4.71-11.5,9.99-19.02,15.82-7.52,5.84-15.71,11.45-24.58,16.84-8.87,5.39-17.79,9.65-26.77,12.79-3.37,1.12-7.24,2.19-11.61,3.2-4.38,1.01-8.7,1.51-12.96,1.51Z"/>
    <path class="cls-1" d="M872.81,724.57c-10.33,0-17.84-2.58-22.56-7.74-4.71-5.17-7.07-11.78-7.07-19.86,0-8.75,2.19-18.63,6.57-29.63s10.21-22.16,17.51-33.5c7.29-11.33,15.2-21.83,23.74-31.48-1.12.23-2.25.34-3.37.34h-3.37c-7.63,0-14.03-1.79-19.19-5.39-2.25,3.37-5.39,7.07-9.43,11.11s-7.97,7.63-11.78,10.77c-9.43,7.86-19.42,15.38-29.96,22.56-10.55,7.19-20.99,13.13-31.31,17.84-10.32,4.71-19.97,7.41-28.95,8.08-.67,0-1.63-.12-2.86-.34-1.23-.23-2.19-.67-2.86-1.35-.9-.67-1.12-1.4-.67-2.19.45-.78.9-1.29,1.35-1.51.67-.45,1.46-.84,2.35-1.18.9-.34,2.14-.62,3.7-.84,7.63-1.57,16.05-4.77,25.25-9.6,9.2-4.82,18.79-10.66,28.78-17.51,9.98-6.84,19.58-14.08,28.78-21.71,3.81-2.92,7.74-6.23,11.78-9.93,4.04-3.7,7.63-7.12,10.77-10.27-2.25-3.59-3.37-7.41-3.37-11.45,0-5.39,1.46-10.77,4.38-16.16,2.92-5.39,6.62-10.38,11.11-14.98,4.49-4.6,9.31-8.3,14.48-11.11,5.16-2.81,9.99-4.21,14.48-4.21,2.47,0,4.21.56,5.22,1.68,1.01,1.12,1.51,2.36,1.51,3.7,0,2.92-1.01,5.17-3.03,6.73-1.57,1.35-4.1,3.82-7.58,7.41-3.48,3.59-7.24,7.58-11.28,11.95-4.04,4.38-7.69,8.64-10.94,12.79-3.26,4.16-5.44,7.57-6.57,10.27.67,1.12,1.74,2.14,3.2,3.03,1.46.9,3.98,1.35,7.58,1.35,5.39,0,10.66-1.12,15.82-3.37,5.16-2.24,9.99-4.93,14.48-8.08,1.35-.67,2.81-1.01,4.38-1.01,2.47,0,4.88.5,7.24,1.51,2.36,1.01,3.98,2.08,4.88,3.2.22.23.33.67.33,1.35,0,2.25-1.23,4.94-3.7,8.08-1.35,1.57-2.86,3.26-4.55,5.05-1.68,1.8-3.31,3.59-4.88,5.39-6.29,6.96-12.74,14.76-19.36,23.4-6.62,8.64-12.63,17.4-18.01,26.26-5.39,8.87-9.76,17.28-13.13,25.25-3.37,7.96-5.05,14.87-5.05,20.7,0,4.26,1.18,7.69,3.53,10.27,2.36,2.58,6.45,3.87,12.29,3.87,1.12,0,2.41-.06,3.87-.17,1.46-.12,2.97-.28,4.54-.51,5.61-.9,12.01-2.92,19.19-6.06,7.18-3.14,14.36-6.79,21.55-10.94,7.18-4.16,13.35-7.91,18.52-11.28.45-.45,1.23-.67,2.36-.67,1.57,0,2.47.67,2.69,2.02v.67c0,1.12-.67,2.36-2.02,3.7-.45.45-1.24,1.18-2.36,2.19-1.12,1.01-2.58,2.3-4.38,3.87-7.18,6.28-15.15,11.84-23.9,16.67-8.75,4.83-17.96,8.02-27.61,9.6-2.25.22-4.49.51-6.73.84-2.25.34-4.38.51-6.4.51Z"/>
    <path class="cls-1" d="M1049.22,671.38c-9.88,0-18.24-2.64-25.08-7.91-6.85-5.27-11.95-12-15.32-20.2-3.37-8.19-5.17-16.67-5.39-25.42-7.41,6.29-14.31,12.63-20.7,19.02s-12.18,12.85-17.34,19.36l.67,2.36c.45.67.67,1.35.67,2.02v2.02c0,2.02-.56,3.7-1.69,5.05-1.12,1.35-2.58,2.36-4.37,3.03-1.35.45-2.58.67-3.7.67-1.57,0-3.2-.45-4.88-1.35-1.69-.9-2.86-2.14-3.54-3.7-1.35-3.14-2.02-6.62-2.02-10.44,0-8.3,2.24-17.56,6.73-27.78,4.49-10.21,9.31-20.14,14.48-29.8-2.69,0-4.04-.9-4.04-2.69,0-1.57,1.01-3.14,3.03-4.71,4.71-2.91,7.52-5.27,8.42-7.07,4.04-8.08,9.31-17.45,15.82-28.11,6.51-10.66,14.08-21.83,22.72-33.5,8.64-11.67,17.84-23.01,27.61-34,9.76-10.99,19.92-20.99,30.47-29.96,10.55-8.97,21.09-16.16,31.65-21.55,10.55-5.39,20.65-8.08,30.3-8.08,7.85,0,13.41,1.74,16.67,5.22,3.25,3.48,4.88,7.57,4.88,12.29,0,3.37-.62,6.79-1.85,10.27-1.24,3.48-2.75,6.68-4.54,9.59-6.06,9.88-13.97,19.75-23.74,29.63-9.76,9.88-20.6,19.42-32.49,28.62-11.9,9.21-24.07,17.79-36.53,25.76-12.46,7.97-24.36,15.15-35.69,21.55-11.34,6.39-21.38,11.61-30.13,15.65-4.04,7.63-8.2,15.94-12.46,24.91-4.27,8.98-7.63,17.4-10.1,25.25,4.49-4.49,9.93-9.54,16.33-15.15,6.4-5.61,13.18-11.33,20.37-17.17.45-2.24.89-4.43,1.35-6.57.45-2.13,1.12-4.09,2.02-5.89,2.69-7.63,6.17-11.45,10.44-11.45,1.79,0,3.37.67,4.71,2.02s2.47,2.92,3.37,4.71c9.65-7.18,19.19-13.75,28.62-19.7,9.43-5.94,18.12-10.71,26.09-14.31,7.96-3.59,14.42-5.39,19.36-5.39,7.18,0,10.77,2.92,10.77,8.75,0,2.92-1.24,5.61-3.7,8.08s-5.95,4.04-10.44,4.71c-12.12,1.8-24.3,5.44-36.53,10.94-12.24,5.5-24.07,12.18-35.52,20.03-2.69,6.96-4.04,14.48-4.04,22.56,0,9.65,2.36,18.13,7.07,25.42,4.71,7.3,12.57,10.94,23.57,10.94,7.41,0,15.37-1.52,23.9-4.55,8.53-3.03,17.11-6.9,25.76-11.62,8.64-4.71,16.83-9.76,24.58-15.15,7.74-5.39,14.53-10.44,20.37-15.15,1.12-1.12,2.3-2.07,3.53-2.86,1.23-.78,2.3-1.63,3.2-2.53,1.57-1.12,3.81-2.91,6.73-5.39.67-.22,1.46-.34,2.36-.34,1.79,0,2.69.9,2.69,2.69,0,.9-.56,2.14-1.68,3.7-1.35,1.57-4.38,4.49-9.09,8.75-4.71,4.27-10.49,9.04-17.34,14.31-6.85,5.28-14.2,10.5-22.05,15.66-7.86,5.16-15.71,9.65-23.57,13.47-4.71,2.25-10.89,4.55-18.52,6.9-7.63,2.36-15.38,3.53-23.23,3.53ZM996.7,574.08c16.83-9.43,34.11-19.64,51.85-30.64,17.73-10.99,34.39-23.17,50-36.53,15.6-13.35,28.33-28.33,38.21-44.95,1.12-2.02,2.3-4.21,3.54-6.57,1.23-2.35,2.3-4.65,3.2-6.9.22-.9.39-1.68.51-2.36.11-.67.17-1.23.17-1.68,0-2.92-1.8-4.38-5.39-4.38-4.27,0-9.82,1.57-16.67,4.71-6.85,3.15-14.14,7.24-21.88,12.29-7.74,5.05-15.15,10.49-22.22,16.33-7.07,5.84-12.96,11.34-17.68,16.5-7.18,8.08-14.98,17.23-23.4,27.44-8.42,10.22-16.22,20.26-23.4,30.13-7.19,9.88-12.79,18.74-16.83,26.6Z"/>
  </g>
</svg>